<svg width="35" height="30" viewBox="0 0 35 30" fill="none" xmlns="http://www.w3.org/2000/svg">
<path d="M12.332 9.57422L6.80422 -0.000250278L17.8599 -0.000249311L12.332 9.57422Z" fill="#E0FBFF"/>
<path d="M23.387 9.57422L17.8592 -0.000250278L28.9148 -0.000249311L23.387 9.57422Z" fill="#C6E6FF"/>
<path d="M17.8599 0L23.3877 9.57447L12.332 9.57447L17.8599 0Z" fill="#D0EFFF"/>
<path d="M28.9138 0L34.4416 9.57447L23.386 9.57447L28.9138 0Z" fill="#B3D6FF"/>
<path d="M28.9138 19.1494L23.386 9.57495L34.4417 9.57495L28.9138 19.1494Z" fill="#9BBFFF"/>
<path d="M16.583 20.4258L11.0552 10.8513L22.1108 10.8513L16.583 20.4258Z" fill="#B6D7FF"/>
<path d="M22.1108 10.8506L27.6386 20.4251H16.583L22.1108 10.8506Z" fill="#9EC1FF"/>
<path d="M11.0554 10.8506L16.5832 20.4251H5.52759L11.0554 10.8506Z" fill="#C6E6FF"/>
<path d="M11.0554 30L5.52761 20.4255L16.5833 20.4255L11.0554 30Z" fill="#CFF0FF"/>
<path d="M5.52782 20.4258L11.0556 30.0002H0L5.52782 20.4258Z" fill="#DEFCFF"/>
<path d="M22.1109 30L16.583 20.4255L27.6387 20.4255L22.1109 30Z" fill="#B5D5FF"/>
<path d="M27.6384 20.4258L33.1662 30.0002H22.1106L27.6384 20.4258Z" fill="#C5E4FF"/>
</svg>
